<svg width="512" height="512" viewBox="0 0 512 512" fill="none" xmlns="http://www.w3.org/2000/svg" role="img" aria-label="GMZero">
  <defs>
    <linearGradient id="bg" x1="0" y1="0" x2="0" y2="512" gradientUnits="userSpaceOnUse">
      <stop offset="0" stop-color="#241c34"/>
      <stop offset="1" stop-color="#100c18"/>
    </linearGradient>
    <linearGradient id="die" x1="174" y1="100" x2="338" y2="290" gradientUnits="userSpaceOnUse">
      <stop offset="0" stop-color="#a78bfa"/>
      <stop offset="1" stop-color="#6d28d9"/>
    </linearGradient>
    <radialGradient id="glow" cx="0.5" cy="0.5" r="0.5">
      <stop offset="0" stop-color="#a78bfa" stop-opacity="0.22"/>
      <stop offset="1" stop-color="#a78bfa" stop-opacity="0"/>
    </radialGradient>
  </defs>

  <rect width="512" height="512" rx="104" fill="url(#bg)"/>
  <circle cx="256" cy="200" r="220" fill="url(#glow)"/>

  <!-- d20 -->
  <g stroke="#e9e2ff" stroke-width="5" stroke-linejoin="round">
    <ellipse cx="256" cy="300" rx="60" ry="11" fill="#000000" opacity="0.30" stroke="none"/>
    <polygon points="256,100 338,148 338,243 256,291 174,243 174,148" fill="url(#die)"/>
    <g stroke="#c9b8ff" stroke-width="4" opacity="0.85" fill="none">
      <polygon points="256,150 296,226 216,226" fill="#b69bff" opacity="0.55"/>
      <line x1="256" y1="100" x2="256" y2="150"/>
      <line x1="338" y1="148" x2="296" y2="226"/>
      <line x1="338" y1="243" x2="296" y2="226"/>
      <line x1="256" y1="291" x2="296" y2="226"/>
      <line x1="256" y1="291" x2="216" y2="226"/>
      <line x1="174" y1="243" x2="216" y2="226"/>
      <line x1="174" y1="148" x2="216" y2="226"/>
    </g>
    <text x="256" y="212" text-anchor="middle" font-family="ui-monospace, SFMono-Regular, Menlo, monospace" font-size="42" font-weight="800" fill="#ffffff" stroke="none">20</text>
  </g>
  <!-- verified badge -->
  <g transform="translate(322 130)">
    <circle cx="0" cy="0" r="27" fill="#100c18"/>
    <circle cx="0" cy="0" r="22" fill="#34d399"/>
    <path d="M -10 1 L -3 9 L 11 -8" fill="none" stroke="#0b1f17" stroke-width="5.5" stroke-linecap="round" stroke-linejoin="round"/>
  </g>

  <!-- wordmark -->
  <g font-family="ui-sans-serif, system-ui, -apple-system, Segoe UI, Roboto, sans-serif" text-anchor="middle">
    <text x="256" y="394" font-size="72" font-weight="800" letter-spacing="-2" fill="#ffffff">GM<tspan fill="#a78bfa">Zero</tspan></text>
    <text x="256" y="430" font-family="ui-monospace, SFMono-Regular, Menlo, monospace" font-size="19" font-weight="600" letter-spacing="3" fill="#8a83a0">VERIFIABLE AI GM · 0G</text>
  </g>
</svg>
