<svg width="256" height="256" viewBox="0 0 256 256" fill="none" xmlns="http://www.w3.org/2000/svg" role="img" aria-label="GMZero">
  <defs>
    <linearGradient id="bg" x1="0" y1="0" x2="0" y2="256" gradientUnits="userSpaceOnUse">
      <stop offset="0" stop-color="#241c34"/>
      <stop offset="1" stop-color="#100c18"/>
    </linearGradient>
    <linearGradient id="die" x1="50" y1="40" x2="206" y2="218" gradientUnits="userSpaceOnUse">
      <stop offset="0" stop-color="#a78bfa"/>
      <stop offset="1" stop-color="#6d28d9"/>
    </linearGradient>
  </defs>

  <rect width="256" height="256" rx="56" fill="url(#bg)"/>

  <g stroke="#e9e2ff" stroke-width="5" stroke-linejoin="round">
    <!-- shadow -->
    <ellipse cx="128" cy="226" rx="58" ry="11" fill="#000000" opacity="0.30" stroke="none"/>
    <!-- d20 -->
    <polygon points="128,38 206,83 206,173 128,218 50,173 50,83" fill="url(#die)"/>
    <g stroke="#c9b8ff" stroke-width="4" opacity="0.85" fill="none">
      <polygon points="128,90 168,162 88,162" fill="#b69bff" opacity="0.55"/>
      <line x1="128" y1="38" x2="128" y2="90"/>
      <line x1="206" y1="83" x2="168" y2="162"/>
      <line x1="206" y1="173" x2="168" y2="162"/>
      <line x1="128" y1="218" x2="168" y2="162"/>
      <line x1="128" y1="218" x2="88" y2="162"/>
      <line x1="50" y1="173" x2="88" y2="162"/>
      <line x1="50" y1="83" x2="88" y2="162"/>
    </g>
    <text x="128" y="148" text-anchor="middle" font-family="ui-monospace, SFMono-Regular, Menlo, monospace" font-size="46" font-weight="800" fill="#ffffff" stroke="none">20</text>
  </g>

  <!-- verified badge -->
  <g transform="translate(196 64)">
    <circle cx="0" cy="0" r="30" fill="#100c18"/>
    <circle cx="0" cy="0" r="24" fill="#34d399"/>
    <path d="M -11 1 L -3 10 L 12 -9" fill="none" stroke="#0b1f17" stroke-width="6" stroke-linecap="round" stroke-linejoin="round"/>
  </g>
</svg>
